<svg width="25" height="24" viewBox="0 0 25 24" fill="none" xmlns="http://www.w3.org/2000/svg">
<path d="M8.99939 9.79211V9.36011C8.99939 9.23211 9.04739 9.12811 9.14339 9.04811C9.23939 8.96811 9.35139 8.92811 9.47939 8.92811H9.86339V8.18411H8.61539C8.45539 8.18411 8.30339 8.12011 8.15939 7.99211C8.03139 7.84811 7.96739 7.69611 7.96739 7.53611V0.648107C7.96739 0.472107 8.03139 0.320107 8.15939 0.192107C8.30339 0.0641065 8.45539 0.000106335 8.61539 0.000106335H15.6954C15.8714 0.000106335 16.0234 0.0641065 16.1514 0.192107C16.2794 0.320107 16.3434 0.472107 16.3434 0.648107V7.53611C16.3434 7.69611 16.2794 7.84811 16.1514 7.99211C16.0234 8.12011 15.8714 8.18411 15.6954 8.18411H14.4714V8.92811H14.8554C14.9834 8.92811 15.0954 8.96811 15.1914 9.04811C15.2874 9.12811 15.3354 9.23211 15.3354 9.36011V9.79211H8.99939ZM9.57539 6.26411H14.7354C14.8634 6.26411 14.9674 6.21611 15.0474 6.12011C15.1434 6.02411 15.1914 5.92011 15.1914 5.80811V1.65611C15.1914 1.52811 15.1434 1.42411 15.0474 1.34411C14.9674 1.24811 14.8634 1.20011 14.7354 1.20011H9.57539C9.46339 1.20011 9.35939 1.24811 9.26339 1.34411C9.16739 1.42411 9.11939 1.52811 9.11939 1.65611V5.80811C9.11939 5.92011 9.16739 6.02411 9.26339 6.12011C9.35939 6.21611 9.46339 6.26411 9.57539 6.26411ZM4.55939 13.3441L4.53539 11.0161L5.25539 11.5201L6.21539 10.1761L5.54339 9.67211L7.72739 8.97611L7.75139 11.2801L7.05539 10.7761L6.07139 12.1201L6.76739 12.6241L4.55939 13.3441ZM19.7754 13.3441L17.5674 12.6241L18.2634 12.1201L17.2794 10.7761L16.5834 11.2801V8.97611L18.7914 9.67211L18.0954 10.1761L19.0794 11.5201L19.7754 11.0161V13.3441ZM1.03139 23.8561V23.4241C1.03139 23.2961 1.07939 23.1921 1.17539 23.1121C1.27139 23.0321 1.38339 22.9921 1.51139 22.9921H1.89539V22.2481H0.647391C0.487391 22.2481 0.335391 22.1761 0.191391 22.0321C0.0633907 21.9041 -0.000609308 21.7601 -0.000609308 21.6001V14.7121C-0.000609308 14.5361 0.0633907 14.3841 0.191391 14.2561C0.335391 14.1281 0.487391 14.0641 0.647391 14.0641H7.72739C7.90339 14.0641 8.05539 14.1281 8.18339 14.2561C8.31139 14.3841 8.37539 14.5361 8.37539 14.7121V21.6001C8.37539 21.7601 8.31139 21.9041 8.18339 22.0321C8.05539 22.1761 7.90339 22.2481 7.72739 22.2481H6.50339V22.9921H6.88739C7.01539 22.9921 7.12739 23.0321 7.22339 23.1121C7.31939 23.1921 7.36739 23.2961 7.36739 23.4241V23.8561H1.03139ZM16.9674 23.8561V23.4241C16.9674 23.2961 17.0154 23.1921 17.1114 23.1121C17.2074 23.0321 17.3194 22.9921 17.4474 22.9921H17.8314V22.2481H16.5834C16.4234 22.2481 16.2714 22.1761 16.1274 22.0321C15.9994 21.9041 15.9354 21.7601 15.9354 21.6001V14.7121C15.9354 14.5361 15.9994 14.3841 16.1274 14.2561C16.2714 14.1281 16.4234 14.0641 16.5834 14.0641H23.6634C23.8394 14.0641 23.9914 14.1281 24.1194 14.2561C24.2474 14.3841 24.3114 14.5361 24.3114 14.7121V21.6001C24.3114 21.7601 24.2474 21.9041 24.1194 22.0321C23.9914 22.1761 23.8394 22.2481 23.6634 22.2481H22.4394V22.9921H22.8234C22.9514 22.9921 23.0634 23.0321 23.1594 23.1121C23.2554 23.1921 23.3034 23.2961 23.3034 23.4241V23.8561H16.9674ZM1.60739 20.3281H6.76739C6.89539 20.3281 6.99939 20.2801 7.07939 20.1841C7.17539 20.0881 7.22339 19.9761 7.22339 19.8481V15.7201C7.22339 15.5921 7.17539 15.4881 7.07939 15.4081C6.99939 15.3121 6.89539 15.2641 6.76739 15.2641H1.60739C1.49539 15.2641 1.39139 15.3121 1.29539 15.4081C1.19939 15.4881 1.15139 15.5921 1.15139 15.7201V19.8481C1.15139 19.9761 1.19939 20.0881 1.29539 20.1841C1.39139 20.2801 1.49539 20.3281 1.60739 20.3281ZM17.5434 20.3281H22.7034C22.8314 20.3281 22.9354 20.2801 23.0154 20.1841C23.1114 20.0881 23.1594 19.9761 23.1594 19.8481V15.7201C23.1594 15.5921 23.1114 15.4881 23.0154 15.4081C22.9354 15.3121 22.8314 15.2641 22.7034 15.2641H17.5434C17.4314 15.2641 17.3274 15.3121 17.2314 15.4081C17.1354 15.4881 17.0874 15.5921 17.0874 15.7201V19.8481C17.0874 19.9761 17.1354 20.0881 17.2314 20.1841C17.3274 20.2801 17.4314 20.3281 17.5434 20.3281ZM11.3274 20.0161L9.45539 18.6481L11.3274 17.2801V18.1441H12.9834V17.2801L14.8554 18.6481L12.9834 20.0161V19.1521H11.3274V20.0161Z" fill="#1B1D22"/>
</svg>
